<svg width="146" height="153" viewBox="0 0 146 153" fill="none" xmlns="http://www.w3.org/2000/svg">
<path d="M0.514588 2.394H0.514659L0.514518 2.3855C0.502477 1.65776 0.987806 1.04896 1.63525 0.906895C1.71282 0.901202 1.7926 0.902121 1.87404 0.909646L1.89763 0.911826H1.92131H21.1212C21.8791 0.911826 22.5266 1.55616 22.5266 2.3945V10.3775V10.8913H23.0404L109.502 10.8913L109.509 10.8912C109.88 10.8862 110.24 11.0346 110.509 11.3107L110.51 11.3114C110.779 11.5878 110.935 11.9704 110.935 12.3739C110.935 12.7769 110.78 13.1587 110.509 13.4371C110.24 13.7127 109.879 13.8613 109.51 13.8553V13.8552H109.502H23.0404H22.5266V14.369V22.3534C22.5266 23.1913 21.8796 23.8347 21.1212 23.8347H13.4406H12.9268V24.3485V128.136V128.65H13.4406H21.1212C21.8796 128.65 22.5266 129.293 22.5266 130.131V138.116V138.629H23.0404L109.502 138.63L109.51 138.629C109.879 138.623 110.239 138.772 110.509 139.048C110.78 139.326 110.935 139.708 110.935 140.111C110.935 140.514 110.779 140.897 110.51 141.173L110.509 141.174C110.24 141.45 109.88 141.598 109.509 141.593H109.502H23.0404H22.5266V142.107V150.09C22.5266 150.929 21.8791 151.573 21.1212 151.573H1.92131C1.16295 151.573 0.514588 150.928 0.514588 150.09L0.514659 130.131L0.514518 130.123C0.502457 129.395 0.989569 128.784 1.63756 128.645C1.7135 128.638 1.79057 128.639 1.8682 128.647L1.89468 128.65H1.92131H9.6006H10.1144V128.136V24.3483V23.8345H9.6006H1.92131C1.1625 23.8345 0.514588 23.1906 0.514588 22.3532V2.394ZM123.395 2.394L123.395 2.38479C123.382 1.65769 123.867 1.04902 124.515 0.906913C124.595 0.900989 124.674 0.901765 124.753 0.909097L124.777 0.911326H124.801H144C144.759 0.911326 145.407 1.55614 145.407 2.394V22.3532C145.407 23.1906 144.759 23.8345 144 23.8345H136.321H135.807V24.3483L135.807 113.666L135.807 113.672C135.812 114.077 135.662 114.461 135.396 114.741L135.395 114.742C135.13 115.022 134.771 115.176 134.401 115.176C134.031 115.176 133.673 115.022 133.406 114.742C133.14 114.461 132.989 114.076 132.995 113.673V113.666V24.3483V23.8345H132.481H124.801C124.042 23.8345 123.395 23.191 123.395 22.3532L123.395 2.394ZM3.84103 3.87518H3.32722V4.38899V20.3567V20.8705H3.84103H19.2013H19.7151V20.3567V4.38899V3.87518H19.2013H3.84103ZM126.72 3.87518H126.207V4.38899V20.3567V20.8705H126.72H142.081H142.595V20.3567V4.38899V3.87518H142.081H126.72ZM56.1946 60.2738V60.2571L56.1935 60.2404C56.1899 60.1851 56.1896 60.1285 56.1927 60.0713C56.2841 59.3563 56.8455 58.8323 57.5045 58.7921C57.5296 58.7913 57.5559 58.7913 57.5822 58.7922L57.5911 58.7925H57.6H88.3206C89.0789 58.7925 89.726 59.4359 89.726 60.2738V92.2092C89.726 93.0471 89.0789 93.6905 88.3206 93.6905H57.6C56.8417 93.6905 56.1946 93.0471 56.1946 92.2092V60.2738ZM59.5205 61.7564H59.0067V62.2702V90.2123V90.7262H59.5205H86.3997H86.9135V90.2123V62.2702V61.7564H86.3997H59.5205ZM123.395 130.131L123.395 130.121C123.382 129.394 123.869 128.784 124.517 128.644C124.594 128.638 124.671 128.639 124.747 128.646L124.774 128.649H124.801H144C144.759 128.649 145.407 129.293 145.407 130.131V150.09C145.407 150.928 144.759 151.572 144 151.572H124.801C124.043 151.572 123.395 150.928 123.395 150.09L123.395 130.131ZM3.84076 131.613H3.32695V132.127V148.095V148.608H3.84076H19.201H19.7148V148.095V132.127V131.613H19.201H3.84076ZM126.72 131.613H126.206V132.127V148.095V148.608H126.72H142.081H142.594V148.095V132.127V131.613H142.081H126.72Z" fill="#97CC0A" stroke="white" stroke-width="1.02762"/>
</svg>
