<svg width="30" height="30" viewBox="0 0 30 30" fill="none" xmlns="http://www.w3.org/2000/svg">
<path fill-rule="evenodd" clip-rule="evenodd" d="M14.63 0.287598C22.7108 0.287598 29.26 6.8368 29.26 14.9176C29.26 22.2212 23.9109 28.2732 16.9159 29.3704V29.3704C16.916 29.3704 16.9161 29.3704 16.9162 29.3703V19.1466H20.3248L20.3248 19.1465H20.3251L20.9737 14.9175H16.9162V12.1744C16.9162 11.2308 17.2924 10.3061 18.4165 9.99692C18.6709 9.92696 18.9637 9.88853 19.299 9.88853H21.1449V9.88845H21.1452V6.2881C21.1452 6.2881 19.4707 6.00236 17.8706 6.00236C17.2436 6.00236 16.6575 6.07361 16.1189 6.21356C16.0417 6.2336 15.9656 6.25505 15.8904 6.2779C13.6915 6.94634 12.3441 8.8142 12.3441 11.6944V14.9175H8.62969V14.9176H8.62941V19.1466H12.3441V29.3704C5.34909 28.2732 0 22.2212 0 14.9176C0 6.8368 6.54921 0.287598 14.63 0.287598Z" fill="white"/>
</svg>
