<svg width="177" height="151" viewBox="0 0 177 151" fill="none" xmlns="http://www.w3.org/2000/svg">
<path d="M89.2921 0.763317L175.983 49.293C176.49 49.6242 176.629 49.9855 176.545 50.2299L176.502 50.3526L176.535 50.4783C176.602 50.7373 176.567 50.944 176.476 51.1196C176.381 51.3042 176.211 51.4785 175.974 51.6316C175.974 51.632 175.973 51.6323 175.973 51.6326L141.852 73.4638L141.654 73.5907V73.826L141.652 115.687C141.652 116.124 141.509 116.508 141.104 116.77L89.2897 150.136C88.9055 150.322 88.6327 150.443 88.3822 150.443C88.1317 150.443 87.8602 150.322 87.4742 150.136L35.6975 116.794C35.366 116.462 35.1121 116.041 35.1121 115.687V73.826V73.5928L34.9166 73.4656L23.5425 66.0674L22.878 65.6352L22.878 66.4278L22.8754 120.378L22.8754 120.73L23.2196 120.8C26.5649 121.481 29.0286 124.374 29.0286 127.957C29.0286 132.05 25.6798 135.466 21.4415 135.466C17.3838 135.466 13.8543 132.043 13.8543 127.957C13.8543 124.565 16.311 121.654 19.6837 120.795L20.0075 120.713V120.378V64.0821V63.8472L19.8098 63.7203L1.01637 51.6559C0.882579 51.5177 0.736368 51.3053 0.621285 51.064C0.496785 50.8028 0.43 50.5524 0.43 50.3692C0.43 50.0267 0.676385 49.6069 1.15496 49.2939L87.847 0.763317L87.8589 0.756685L87.8703 0.749318C88.2876 0.479811 88.8516 0.479811 89.2688 0.749318L89.2802 0.756685L89.2921 0.763317ZM138.774 115.147L138.971 115.02L138.971 114.786L138.971 76.1722V75.3847L138.309 75.8104L89.4774 107.193C89.093 107.379 88.8202 107.5 88.5696 107.5C88.3191 107.5 88.0475 107.378 87.6614 107.193L38.8307 75.8104L38.1682 75.3847V76.1722V114.786V115.02L38.3658 115.147L88.3373 147.265L88.5698 147.415L88.8023 147.265L138.774 115.147ZM88.3374 104.321L88.5698 104.47L88.8022 104.321L171.966 50.911L172.57 50.5231L171.943 50.1736L88.7814 3.80137L88.5724 3.68482L88.3632 3.80102L5.19822 49.9928L4.57297 50.3401L5.17293 50.7294L21.0228 61.015L21.2403 61.1561L21.4666 61.0296L79.2421 28.7468C80.0253 28.4547 80.8661 28.6311 81.2862 29.2748C81.5805 30.0221 81.3992 30.8291 80.7118 31.2298C80.7109 31.2304 80.71 31.2309 80.7091 31.2314L24.5902 62.6244L23.9648 62.9742L24.5677 63.3615L88.3374 104.321ZM21.6306 132.898C24.1037 132.898 26.3489 130.722 26.3489 128.137C26.3489 125.578 24.3086 123.367 21.6147 123.558C19.172 123.566 16.9123 125.535 16.9123 128.137C16.9123 130.71 18.9582 132.898 21.6306 132.898Z" fill="#97CC0A" stroke="white" stroke-width="0.86"/>
</svg>
