<svg width="155" height="147" viewBox="0 0 155 147" fill="none" xmlns="http://www.w3.org/2000/svg">
<path d="M122.456 144.774H32.9122C28.391 144.774 24.6279 141.051 24.6279 136.784V54.4463C24.6279 52.9555 25.8926 51.6543 27.5691 51.6543C29.2456 51.6543 30.5103 52.9555 30.5103 54.4463V136.784C30.5103 137.242 30.6692 137.609 30.7904 137.829C30.9224 138.068 31.0867 138.274 31.2523 138.44C31.4178 138.607 31.6228 138.772 31.8623 138.906C32.0818 139.028 32.4502 139.19 32.9123 139.19H122.456C122.873 139.19 123.179 139.038 123.303 138.969C123.459 138.883 123.58 138.786 123.666 138.709C123.84 138.553 123.98 138.374 124.09 138.197C124.313 137.838 124.49 137.353 124.49 136.784V54.4463C124.49 52.9555 125.754 51.6543 127.431 51.6543C129.107 51.6543 130.372 52.9555 130.372 54.4463V136.784C130.372 141.201 126.807 144.774 122.456 144.774H122.456Z" fill="#97CC0A" stroke="white" stroke-width="3.33"/>
<path d="M76.465 10.0346L6.67798 78.3819C6.67795 78.382 6.67792 78.382 6.6779 78.382C6.14184 78.9062 5.44846 79.1887 4.73515 79.2219H4.59501C3.83218 79.2219 3.08165 78.9377 2.51003 78.3786C1.38305 77.274 1.3833 75.4988 2.51092 74.3944L75.5453 2.86674C76.0916 2.33173 76.8415 2.02437 77.6294 2.02437C78.4173 2.02437 79.1672 2.33173 79.7135 2.86674L152.489 74.141C153.617 75.2456 153.617 77.0214 152.489 78.1261C151.342 79.2496 149.468 79.2496 148.321 78.126L78.7951 10.0346L77.6301 8.89359L76.465 10.0346Z" fill="#97CC0A" stroke="white" stroke-width="3.33"/>
</svg>
