<svg width="30" height="30" viewBox="0 0 30 30" fill="none" xmlns="http://www.w3.org/2000/svg">
<path d="M8.71197 0.103711C7.15534 0.178153 6.09232 0.429952 5.16303 0.800087C4.20125 1.18001 3.38607 1.68983 2.57498 2.51493C1.7639 3.34002 1.26443 4.16689 0.892241 5.14324C0.53205 6.08726 0.288022 7.16563 0.219261 8.74434C0.1505 10.3231 0.135285 10.8305 0.142893 14.8575C0.1505 18.8845 0.168056 19.3893 0.243547 20.9712C0.317867 22.5488 0.565407 23.626 0.930571 24.5682C1.30598 25.5431 1.80837 26.369 2.62268 27.1915C3.43698 28.0139 4.25216 28.519 5.21774 28.8968C6.14821 29.2613 7.2124 29.5099 8.76961 29.579C10.3268 29.6481 10.8281 29.6641 14.7998 29.6564C18.7716 29.6487 19.2716 29.6309 20.832 29.5558C22.3925 29.4808 23.4496 29.2281 24.3795 28.8597C25.3413 28.4783 26.1568 27.97 26.9676 27.1443C27.7784 26.3186 28.2775 25.4912 28.6494 24.5142C29.0099 23.5711 29.2548 22.4924 29.3224 20.9152C29.3906 19.3323 29.4067 18.827 29.3991 14.8006C29.3915 10.7742 29.3736 10.2694 29.2996 8.68799C29.2256 7.10661 28.9777 6.03269 28.6129 5.08985C28.2369 4.11499 27.7351 3.2896 26.921 2.46658C26.107 1.64357 25.2901 1.13789 24.3266 0.761828C23.3955 0.396735 22.3319 0.147902 20.7747 0.0796881C19.2175 0.0114742 18.7163 -0.00602416 14.743 0.00168698C10.7698 0.00939812 10.2724 0.0265999 8.71197 0.103711ZM8.88285 26.9112C7.45643 26.8483 6.68191 26.6081 6.16577 26.407C5.48225 26.1401 4.99537 25.8174 4.48098 25.3011C3.96659 24.7847 3.65058 24.2894 3.38373 23.5981C3.1833 23.0749 2.9419 22.2907 2.87519 20.8449C2.80262 19.2822 2.78741 18.813 2.77892 14.8539C2.77044 10.8949 2.78536 10.4263 2.85295 8.86298C2.91381 7.41832 3.15228 6.63238 3.35037 6.1095C3.61371 5.4158 3.93089 4.92317 4.44148 4.40208C4.95206 3.88098 5.43924 3.56008 6.12188 3.2896C6.63744 3.08555 7.41107 2.84295 8.83691 2.77414C10.3798 2.69999 10.8421 2.68516 14.7474 2.67656C18.6528 2.66796 19.1162 2.68279 20.6597 2.7516C22.085 2.81447 22.8606 3.05382 23.3759 3.25579C24.0597 3.52271 24.5463 3.84332 25.0604 4.36174C25.5745 4.88017 25.8914 5.3722 26.1582 6.06561C26.3598 6.58671 26.5992 7.37057 26.6665 8.81671C26.7399 10.3806 26.7566 10.8495 26.7636 14.8077C26.7706 18.7659 26.7569 19.2359 26.6893 20.7986C26.627 22.2445 26.3906 23.0298 26.1919 23.5536C25.9285 24.2461 25.6111 24.7399 25.1002 25.2607C24.5893 25.7815 24.1027 26.1024 23.4198 26.3729C22.9048 26.5767 22.1303 26.8199 20.7056 26.8887C19.1628 26.9622 18.7005 26.9776 14.7937 26.9862C10.8869 26.9948 10.426 26.9788 8.88314 26.9112H8.88285ZM20.8095 6.90346C20.8101 7.25543 20.9136 7.59933 21.107 7.89165C21.3005 8.18397 21.5751 8.41159 21.8961 8.54571C22.2172 8.67984 22.5702 8.71445 22.9107 8.64516C23.2511 8.57588 23.5637 8.40581 23.8088 8.15647C24.0539 7.90713 24.2205 7.58972 24.2876 7.24438C24.3547 6.89903 24.3193 6.54128 24.1858 6.21635C24.0523 5.89143 23.8267 5.61393 23.5376 5.41896C23.2485 5.22398 22.9088 5.12029 22.5616 5.121C22.0961 5.12194 21.65 5.31024 21.3214 5.6445C20.9929 5.97876 20.8087 6.43161 20.8095 6.90346ZM7.25921 14.8439C7.26741 19.0494 10.637 22.4509 14.7852 22.4429C18.9334 22.4349 22.2915 19.0197 22.2836 14.8142C22.2757 10.6087 18.9053 7.20627 14.7565 7.21457C10.6077 7.22287 7.25131 10.6389 7.25921 14.8439ZM9.89437 14.8385C9.89246 13.8609 10.1766 12.9046 10.7109 12.0906C11.2452 11.2766 12.0056 10.6415 12.8959 10.2656C13.7863 9.88971 14.7667 9.78985 15.7131 9.97868C16.6594 10.1675 17.5293 10.6366 18.2127 11.3265C18.896 12.0164 19.3622 12.8963 19.5523 13.8548C19.7423 14.8133 19.6477 15.8074 19.2803 16.7113C18.913 17.6153 18.2894 18.3886 17.4885 18.9334C16.6876 19.4781 15.7453 19.7699 14.7808 19.7719C14.1403 19.7732 13.5059 19.6467 12.9137 19.3995C12.3215 19.1523 11.7832 18.7893 11.3294 18.3312C10.8756 17.873 10.5153 17.3288 10.2691 16.7295C10.0229 16.1303 9.89556 15.4877 9.89437 14.8385Z" fill="white"/>
</svg>
