<svg width="28" height="29" viewBox="0 0 28 29" fill="none" xmlns="http://www.w3.org/2000/svg">
<path d="M25.7189 0.868896H2.41674C1.14399 0.868896 0.03125 1.78528 0.03125 3.04348V26.3966C0.03125 27.6621 1.14399 28.7894 2.41674 28.7894H25.7116C26.9916 28.7894 27.9517 27.6548 27.9517 26.3966V3.04348C27.9589 1.78528 26.9916 0.868896 25.7189 0.868896ZM8.68592 24.142H4.68586V11.7054H8.68592V24.142ZM6.82408 9.8145H6.79499C5.51497 9.8145 4.68586 8.86175 4.68586 7.66901C4.68586 6.45444 5.53679 5.52352 6.8459 5.52352C8.15501 5.52352 8.95502 6.44717 8.98411 7.66901C8.98411 8.86175 8.15501 9.8145 6.82408 9.8145ZM23.3043 24.142H19.3043V17.3419C19.3043 15.7128 18.7224 14.6 17.2751 14.6C16.1697 14.6 15.5151 15.3491 15.2242 16.0764C15.1151 16.3382 15.086 16.6946 15.086 17.0583V24.142H11.086V11.7054H15.086V13.4364C15.6678 12.6073 16.577 11.4145 18.6933 11.4145C21.3188 11.4145 23.3043 13.1455 23.3043 16.8764V24.142Z" fill="white"/>
</svg>
