<svg version="1.1" xmlns="http://www.w3.org/2000/svg" xmlns:xlink="http://www.w3.org/1999/xlink" x="0px" y="0px" viewBox="0 0 120 120" xml:space="preserve"><path d="M25.6,62.2c-0.3-0.1-0.6-0.2-1-0.3c-0.4,0-0.7-0.1-1.1-0.1h-2.5v4h2.3c0.3,0,0.7,0,1.1,0
    c0.4,0,0.7-0.1,1-0.2c0.3-0.1,0.6-0.3,0.8-0.6c0.2-0.3,0.3-0.6,0.3-1.1c0-0.4-0.1-0.8-0.3-1.1C26.2,62.5,25.9,62.3,25.6,62.2z
     M19,42.9l-2.1,5.4h4.3L19,42.9z M87.9,42.9l-2.1,5.4H90L87.9,42.9z M110,83H10v-3h100V83z M17.5,37.8h3.2l7.6,17.5H24l-1.5-3.7
    h-6.8l-1.5,3.7H10L17.5,37.8z M30.1,61.3c0.4,0.7,0.5,1.5,0.5,2.6c0,1.2-0.3,2.3-1,3.1c-0.6,0.9-1.6,1.4-2.8,1.6l4.4,7.4h-4.6
    L23,69.1h-1.9V76h-3.8V58.6H24c0.9,0,1.7,0.1,2.5,0.2c0.8,0.2,1.5,0.5,2.1,0.9C29.2,60.1,29.7,60.6,30.1,61.3L30.1,61.3z M37,76
    h-3.8V58.6H37V76z M30,37.8h5.3l7.4,12.1h0V37.8h3.9v17.5h-5.1l-7.6-12.5h0v12.5H30V37.8z M52.8,58.6c1.2,0.3,2.2,0.9,3.1,1.7
    l-2.7,3c-0.5-0.5-1.1-1-1.8-1.2c-0.7-0.3-1.5-0.4-2.5-0.4c-0.8,0-1.6,0.1-2.2,0.4c-0.7,0.3-1.2,0.7-1.7,1.2
    c-0.5,0.5-0.8,1.1-1.1,1.8c-0.3,0.7-0.4,1.4-0.4,2.2c0,0.8,0.1,1.6,0.4,2.3c0.3,0.7,0.6,1.3,1.1,1.8c0.5,0.5,1,0.9,1.7,1.2
    c0.7,0.3,1.4,0.4,2.2,0.4c0.8,0,1.6-0.1,2.2-0.3c0.6-0.2,1.1-0.4,1.4-0.6v-2.9h-3.1v-3.5h6.8v9.1c-1.1,0.6-2.3,1-3.5,1.3
    c-1.2,0.3-2.5,0.4-3.8,0.4c-1.4,0-2.6-0.2-3.8-0.6c-1.1-0.4-2.1-1-3-1.8c-0.8-0.8-1.5-1.8-2-2.9c-0.5-1.1-0.7-2.4-0.7-3.8
    c0-1.4,0.2-2.7,0.7-3.8c0.5-1.1,1.1-2.1,2-2.9c0.8-0.8,1.8-1.4,3-1.8c1.1-0.4,2.4-0.6,3.8-0.6C50.4,58.1,51.7,58.3,52.8,58.6
    L52.8,58.6z M50.1,37.8h3.8v17.5h-3.8V37.8z M63.5,68.5V76h-3.8V58.6h3.8v6.5H71v-6.5h3.8V76H71v-7.5H63.5z M57.4,37.8h5.8l4,11.4h0
    l4-11.4h5.8v17.5h-3.8V41.9h-0.1l-4.6,13.4h-2.9l-4.4-13.4h-0.1v13.4h-3.8V37.8z M76.8,62v-3.4h13.8V62h-5v14h-3.9V62H76.8z
     M86.4,37.8h3.2l7.6,17.5h-4.3l-1.5-3.7h-6.8l-1.5,3.7h-4.2L86.4,37.8z M101.3,58.5c0.9,0.3,1.7,0.7,2.5,1.4l-2.6,2.9
    c-0.3-0.4-0.7-0.7-1.3-0.9c-0.5-0.2-1-0.3-1.5-0.3c-0.3,0-0.6,0-0.9,0.1c-0.3,0.1-0.6,0.2-0.8,0.3c-0.3,0.1-0.5,0.3-0.6,0.6
    c-0.2,0.2-0.2,0.5-0.2,0.8c0,0.5,0.2,0.9,0.6,1.2c0.4,0.3,0.9,0.5,1.5,0.7c0.6,0.2,1.2,0.4,1.9,0.6c0.7,0.2,1.3,0.5,1.9,0.8
    c0.6,0.4,1.1,0.8,1.5,1.5c0.4,0.6,0.6,1.4,0.6,2.4c0,1-0.2,1.8-0.5,2.5c-0.4,0.7-0.8,1.3-1.5,1.8c-0.6,0.5-1.3,0.8-2.1,1.1
    c-0.8,0.2-1.7,0.3-2.6,0.3c-1.1,0-2.2-0.2-3.2-0.5c-1-0.3-1.9-0.9-2.7-1.7l2.7-3c0.4,0.5,0.9,0.9,1.5,1.2c0.6,0.3,1.2,0.4,1.9,0.4
    c0.3,0,0.6,0,0.9-0.1c0.3-0.1,0.6-0.2,0.9-0.3c0.3-0.1,0.5-0.3,0.6-0.6c0.2-0.2,0.2-0.5,0.2-0.8c0-0.5-0.2-0.9-0.6-1.2
    c-0.4-0.3-0.9-0.6-1.5-0.8c-0.6-0.2-1.3-0.4-2-0.6c-0.7-0.2-1.4-0.5-2-0.9c-0.6-0.4-1.1-0.8-1.5-1.4c-0.4-0.6-0.6-1.4-0.6-2.3
    c0-0.9,0.2-1.8,0.6-2.5c0.4-0.7,0.9-1.3,1.5-1.8c0.6-0.5,1.3-0.8,2.1-1.1c0.8-0.2,1.6-0.4,2.5-0.4C99.4,58.1,100.4,58.3,101.3,58.5
    L101.3,58.5z M99,37.8h3.9v13.9h7.1v3.6H99V37.8z M0,120h120V0H0V120z"></path></svg>
