<svg width="184" height="131" viewBox="0 0 184 131" fill="none" xmlns="http://www.w3.org/2000/svg">
<path d="M169.293 21.8401C169.293 33.3669 159.702 42.7753 147.885 42.7753C136.068 42.7753 126.478 33.3672 126.478 21.8401C126.478 10.3133 136.069 0.904785 147.885 0.904785C159.703 0.904785 169.293 10.3142 169.293 21.8401ZM164.91 21.8404C164.91 12.6219 157.265 5.16253 147.885 5.16253C138.506 5.16253 130.861 12.6219 130.861 21.8404C130.861 31.0589 138.506 38.5183 147.885 38.5183C157.265 38.5183 164.91 31.0589 164.91 21.8404Z" fill="#97CC0A" stroke="white" stroke-width="1.5"/>
<path d="M125.278 63.2713C124.257 62.0426 124.453 60.2194 125.709 59.2221C131.686 54.4914 139.133 51.7926 146.815 51.5628L125.278 63.2713ZM125.278 63.2713C126.297 64.5001 128.16 64.7103 129.415 63.693L125.278 63.2713ZM147.885 52.2968H148.178C167.096 52.4517 182.428 67.56 182.428 86.0708V117.619C182.428 118.781 181.466 119.747 180.238 119.747C179.01 119.747 178.047 118.782 178.047 117.619L178.048 86.088C178.048 69.7883 164.501 56.5526 147.886 56.5526C140.915 56.5526 134.357 58.8155 128.949 63.1054L128.949 63.1053L128.943 63.1103C128.013 63.8634 126.617 63.7118 125.855 62.7925L125.855 62.7921C125.106 61.8905 125.245 60.5483 126.175 59.8098C132.295 54.9659 139.994 52.2968 147.885 52.2968Z" fill="#97CC0A" stroke="white" stroke-width="1.5"/>
<path d="M35.2926 42.7753C47.1092 42.7753 56.7 33.3669 56.7 21.8401C56.7 10.3142 47.1102 0.904785 35.2926 0.904785C23.4761 0.904785 13.8853 10.3132 13.8853 21.84L35.2926 42.7753ZM35.2926 42.7753C23.4765 42.7753 13.8866 33.3673 13.8853 21.8401L35.2926 42.7753ZM52.3172 21.8404C52.3172 12.6219 44.672 5.16253 35.2926 5.16253C25.9133 5.16253 18.268 12.6219 18.268 21.8404C18.268 31.0589 25.9133 38.5183 35.2926 38.5183C44.672 38.5183 52.3172 31.0589 52.3172 21.8404Z" fill="#97CC0A" stroke="white" stroke-width="1.5"/>
<path d="M57.3245 62.7746L57.5442 62.9568L57.3214 62.7784C56.564 63.7045 55.1898 63.854 54.2325 63.09L54.2307 63.0885C48.8209 58.7989 42.2647 56.5359 35.2932 56.5359C18.6785 56.5359 5.13127 69.7715 5.13127 86.0712V117.619C5.13127 118.782 4.1691 119.747 2.94064 119.747C1.71308 119.747 0.75 118.783 0.75 117.619V86.0712C0.75 67.4446 16.2422 52.2788 35.2944 52.2788C43.1853 52.2788 50.8835 54.9463 57.0041 59.7912C57.9331 60.531 58.0723 61.8728 57.3245 62.7746Z" fill="#97CC0A" stroke="white" stroke-width="1.5"/>
<path d="M112.996 31.6467C112.996 43.1735 103.406 52.582 91.589 52.582C79.7728 52.582 70.1816 43.1725 70.1816 31.6467C70.1816 20.1199 79.7728 10.7114 91.589 10.7114C103.405 10.7114 112.996 20.1209 112.996 31.6467ZM108.614 31.647C108.614 22.4286 100.968 14.9692 91.589 14.9692C82.2097 14.9692 74.5644 22.4286 74.5644 31.647C74.5644 40.8655 82.2097 48.3249 91.589 48.3249C100.968 48.3249 108.614 40.8655 108.614 31.647Z" fill="#97CC0A" stroke="white" stroke-width="1.5"/>
<path d="M57.0449 95.8954C57.0449 77.2688 72.5371 62.103 91.5893 62.103H91.5898C110.642 62.103 126.134 77.2688 126.134 95.8954L126.133 127.443C126.133 128.606 125.171 129.571 123.942 129.571C122.715 129.571 121.751 128.607 121.751 127.443V95.8954C121.751 79.5957 108.204 66.3601 91.5895 66.3601C74.9748 66.3601 61.4276 79.5957 61.4276 95.8954L61.4262 127.443C61.4262 128.606 60.464 129.571 59.2356 129.571C58.008 129.571 57.0449 128.607 57.0449 127.443V95.8954Z" fill="#97CC0A" stroke="white" stroke-width="1.5"/>
</svg>
