<svg width="201" height="161" viewBox="0 0 201 161" fill="none" xmlns="http://www.w3.org/2000/svg">
<mask id="path-1-inside-1_616_3152" fill="white">
<path d="M200.843 29.5087C199.302 14.2212 186.897 1.89883 171.357 0.212739C161.818 -0.848374 152.275 2.09348 145.184 8.28911C138.076 14.5007 133.996 23.4257 133.996 32.7798C133.996 40.6351 136.855 48.1974 142.037 54.0593C144.192 56.5226 145.632 59.2933 146.365 62.2863H107.196V39.3368C107.196 37.5263 105.698 36.0583 103.846 36.0583H56.948C55.0966 36.0583 53.5981 37.5263 53.5981 39.3368V62.2863H3.34988C1.49849 62.2863 0 63.7544 0 65.5648V101.628V101.63V157.361C0 159.173 1.49849 160.639 3.34988 160.639H157.445C159.296 160.639 160.794 159.173 160.794 157.361V106.576C162.921 107.299 165.17 107.695 167.494 107.695C178.836 107.695 188.062 98.6636 188.062 87.5635V66.5166C188.062 62.0818 189.828 57.6894 193.172 53.8125C198.98 47.0858 201.71 38.4605 200.842 29.5077L200.843 29.5087ZM107.195 111.464V91.7929H120.595V111.464H107.195ZM123.945 85.2359H103.845C103.382 85.2359 102.942 85.3281 102.541 85.4935C101.339 85.9911 100.495 87.1562 100.495 88.5144V98.3499H60.2968V88.5144C60.2968 86.7025 58.7983 85.2359 56.9469 85.2359H36.8476C36.384 85.2359 35.9443 85.3281 35.5435 85.4935C34.3412 85.9911 33.4977 87.1562 33.4977 88.5144V98.3499H6.69862V68.8449H146.927V87.5631C146.927 87.588 146.931 87.6128 146.931 87.6392C146.934 88.3886 146.98 89.1321 147.067 89.8683C147.082 89.9912 147.105 90.1127 147.123 90.2356C147.155 90.4698 147.206 90.6982 147.247 90.9309C147.315 91.329 147.378 91.7271 147.471 92.1179C147.529 92.3638 147.604 92.6023 147.673 92.8453C147.736 93.0722 147.8 93.2976 147.872 93.523C147.953 93.7776 148.033 94.0323 148.125 94.284C148.244 94.6133 148.383 94.9339 148.521 95.2559C148.572 95.3759 148.615 95.5003 148.669 95.6203C148.712 95.7184 148.745 95.8194 148.79 95.9174C148.857 96.0623 148.94 96.2014 149.011 96.3448C149.179 96.6829 149.361 97.0093 149.547 97.3371C149.704 97.6123 149.858 97.886 150.027 98.1524C150.067 98.2153 150.096 98.287 150.136 98.35H127.295V88.5144C127.295 86.7025 125.797 85.2359 123.946 85.2359L123.945 85.2359ZM40.1975 111.464V91.7929H53.597V111.464H40.1975ZM60.2968 42.6153H100.495V62.2863H60.2968V42.6153ZM6.69862 154.085V104.907H33.4977V114.742C33.4977 116.554 34.9962 118.021 36.8476 118.021H56.9469C57.4105 118.021 57.8502 117.929 58.2524 117.763C59.4548 117.266 60.2983 116.102 60.2983 114.742V104.907H100.497V114.742C100.497 116.554 101.995 118.021 103.847 118.021H123.946C124.41 118.021 124.849 117.929 125.252 117.763C126.454 117.266 127.297 116.102 127.297 114.742V104.907H154.097V154.085H6.69862ZM181.36 87.5627C181.36 95.0478 175.137 101.138 167.492 101.138C164.538 101.138 161.755 100.248 159.38 98.5265L159.379 98.525C155.773 96.031 153.624 91.9328 153.624 87.5624V82.4165H181.358L181.36 87.5627ZM188.051 49.577C188.051 49.5784 188.051 49.5799 188.048 49.5799C183.673 54.6558 181.361 60.5118 181.361 66.5139V75.8578H170.857L170.855 35.9349L179.413 30.3513C180.953 29.3473 181.369 27.3114 180.341 25.8053C179.317 24.2992 177.24 23.8879 175.696 24.8964L167.504 30.2416L159.312 24.8964C157.769 23.8879 155.687 24.2992 154.667 25.8053C153.64 27.3113 154.055 29.3472 155.596 30.3513L164.153 35.9349V75.8578H153.626V66.482V66.4688C153.626 66.0532 153.616 65.5951 153.587 65.4355C153.585 65.3741 153.574 65.3126 153.571 65.2526C153.568 65.2277 153.571 65.2013 153.568 65.1765C153.568 65.1721 153.565 65.1677 153.564 65.1633C153.278 59.679 151.006 54.2314 147.113 49.782C142.975 45.0984 140.695 39.0596 140.695 32.7791C140.695 25.2929 143.956 18.1472 149.645 13.1785C155.397 8.15246 162.862 5.85301 170.609 6.72828C182.835 8.05433 192.965 18.1225 194.176 30.1376C194.864 37.308 192.693 44.2116 188.051 49.5774L188.051 49.577Z"/>
</mask>
<path d="M200.843 29.5087C199.302 14.2212 186.897 1.89883 171.357 0.212739C161.818 -0.848374 152.275 2.09348 145.184 8.28911C138.076 14.5007 133.996 23.4257 133.996 32.7798C133.996 40.6351 136.855 48.1974 142.037 54.0593C144.192 56.5226 145.632 59.2933 146.365 62.2863H107.196V39.3368C107.196 37.5263 105.698 36.0583 103.846 36.0583H56.948C55.0966 36.0583 53.5981 37.5263 53.5981 39.3368V62.2863H3.34988C1.49849 62.2863 0 63.7544 0 65.5648V101.628V101.63V157.361C0 159.173 1.49849 160.639 3.34988 160.639H157.445C159.296 160.639 160.794 159.173 160.794 157.361V106.576C162.921 107.299 165.17 107.695 167.494 107.695C178.836 107.695 188.062 98.6636 188.062 87.5635V66.5166C188.062 62.0818 189.828 57.6894 193.172 53.8125C198.98 47.0858 201.71 38.4605 200.842 29.5077L200.843 29.5087ZM107.195 111.464V91.7929H120.595V111.464H107.195ZM123.945 85.2359H103.845C103.382 85.2359 102.942 85.3281 102.541 85.4935C101.339 85.9911 100.495 87.1562 100.495 88.5144V98.3499H60.2968V88.5144C60.2968 86.7025 58.7983 85.2359 56.9469 85.2359H36.8476C36.384 85.2359 35.9443 85.3281 35.5435 85.4935C34.3412 85.9911 33.4977 87.1562 33.4977 88.5144V98.3499H6.69862V68.8449H146.927V87.5631C146.927 87.588 146.931 87.6128 146.931 87.6392C146.934 88.3886 146.98 89.1321 147.067 89.8683C147.082 89.9912 147.105 90.1127 147.123 90.2356C147.155 90.4698 147.206 90.6982 147.247 90.9309C147.315 91.329 147.378 91.7271 147.471 92.1179C147.529 92.3638 147.604 92.6023 147.673 92.8453C147.736 93.0722 147.8 93.2976 147.872 93.523C147.953 93.7776 148.033 94.0323 148.125 94.284C148.244 94.6133 148.383 94.9339 148.521 95.2559C148.572 95.3759 148.615 95.5003 148.669 95.6203C148.712 95.7184 148.745 95.8194 148.79 95.9174C148.857 96.0623 148.94 96.2014 149.011 96.3448C149.179 96.6829 149.361 97.0093 149.547 97.3371C149.704 97.6123 149.858 97.886 150.027 98.1524C150.067 98.2153 150.096 98.287 150.136 98.35H127.295V88.5144C127.295 86.7025 125.797 85.2359 123.946 85.2359L123.945 85.2359ZM40.1975 111.464V91.7929H53.597V111.464H40.1975ZM60.2968 42.6153H100.495V62.2863H60.2968V42.6153ZM6.69862 154.085V104.907H33.4977V114.742C33.4977 116.554 34.9962 118.021 36.8476 118.021H56.9469C57.4105 118.021 57.8502 117.929 58.2524 117.763C59.4548 117.266 60.2983 116.102 60.2983 114.742V104.907H100.497V114.742C100.497 116.554 101.995 118.021 103.847 118.021H123.946C124.41 118.021 124.849 117.929 125.252 117.763C126.454 117.266 127.297 116.102 127.297 114.742V104.907H154.097V154.085H6.69862ZM181.36 87.5627C181.36 95.0478 175.137 101.138 167.492 101.138C164.538 101.138 161.755 100.248 159.38 98.5265L159.379 98.525C155.773 96.031 153.624 91.9328 153.624 87.5624V82.4165H181.358L181.36 87.5627ZM188.051 49.577C188.051 49.5784 188.051 49.5799 188.048 49.5799C183.673 54.6558 181.361 60.5118 181.361 66.5139V75.8578H170.857L170.855 35.9349L179.413 30.3513C180.953 29.3473 181.369 27.3114 180.341 25.8053C179.317 24.2992 177.24 23.8879 175.696 24.8964L167.504 30.2416L159.312 24.8964C157.769 23.8879 155.687 24.2992 154.667 25.8053C153.64 27.3113 154.055 29.3472 155.596 30.3513L164.153 35.9349V75.8578H153.626V66.482V66.4688C153.626 66.0532 153.616 65.5951 153.587 65.4355C153.585 65.3741 153.574 65.3126 153.571 65.2526C153.568 65.2277 153.571 65.2013 153.568 65.1765C153.568 65.1721 153.565 65.1677 153.564 65.1633C153.278 59.679 151.006 54.2314 147.113 49.782C142.975 45.0984 140.695 39.0596 140.695 32.7791C140.695 25.2929 143.956 18.1472 149.645 13.1785C155.397 8.15246 162.862 5.85301 170.609 6.72828C182.835 8.05433 192.965 18.1225 194.176 30.1376C194.864 37.308 192.693 44.2116 188.051 49.5774L188.051 49.577Z" fill="#97CC0A" stroke="white" stroke-width="4.44" mask="url(#path-1-inside-1_616_3152)"/>
</svg>
