<svg width="31" height="30" viewBox="0 0 31 30" fill="none" xmlns="http://www.w3.org/2000/svg">
<path fill-rule="evenodd" clip-rule="evenodd" d="M30.1501 14.8291C30.1501 23.019 23.6 29.6582 15.5201 29.6582C7.44021 29.6582 0.890137 23.019 0.890137 14.8291C0.890137 6.63922 7.44021 0 15.5201 0C23.6 0 30.1501 6.63922 30.1501 14.8291ZM22.8787 12.4787C22.8787 17.2018 19.3309 22.6515 12.8425 22.6515C10.8528 22.6515 8.99484 22.0583 7.45138 21.0351C7.72935 21.0722 8.00732 21.087 8.2926 21.087C9.94579 21.087 11.4673 20.5161 12.6743 19.5596C11.1308 19.53 9.82875 18.4994 9.38254 17.0758C9.60199 17.1203 9.82144 17.1425 10.0482 17.1425C10.3701 17.1425 10.6846 17.098 10.9772 17.0164C9.36059 16.6828 8.1463 15.2444 8.1463 13.5094V13.4649C8.62178 13.7318 9.16309 13.8949 9.74097 13.9097C8.79002 13.2721 8.16825 12.1747 8.16825 10.9365C8.16825 10.284 8.34381 9.66862 8.64372 9.14219C10.3847 11.3072 12.9815 12.7308 15.9148 12.8791C15.849 12.6196 15.8197 12.3453 15.8197 12.0635C15.8197 10.0912 17.3998 8.4897 19.3456 8.4897C20.3623 8.4897 21.2767 8.91975 21.9204 9.61672C22.7251 9.4536 23.4785 9.15701 24.1588 8.74921C23.8955 9.58706 23.3395 10.284 22.608 10.7289C23.3249 10.6399 24.0052 10.4471 24.6343 10.1654C24.1588 10.8846 23.559 11.5148 22.8714 12.019C22.8787 12.1673 22.8787 12.323 22.8787 12.4787Z" fill="white"/>
</svg>
