<svg width="32" height="24" viewBox="0 0 32 24" fill="none" xmlns="http://www.w3.org/2000/svg">
<path d="M30.376 3.93901C30.0217 2.53392 28.9839 1.42605 27.6678 1.04776C25.2633 0.345215 15.6453 0.345215 15.6453 0.345215C15.6453 0.345215 6.02724 0.345215 3.62273 1.02074C2.33189 1.39903 1.26885 2.53392 0.914503 3.93901C0.281738 6.506 0.281738 11.8291 0.281738 11.8291C0.281738 11.8291 0.281738 17.1793 0.914503 19.7193C1.26885 21.1244 2.30658 22.2322 3.62273 22.6105C6.05255 23.3131 15.6453 23.3131 15.6453 23.3131C15.6453 23.3131 25.2633 23.3131 27.6678 22.6375C28.9839 22.2592 30.0217 21.1514 30.376 19.7463C31.0088 17.1793 31.0088 11.8562 31.0088 11.8562C31.0088 11.8562 31.0341 6.506 30.376 3.93901ZM12.5827 16.747V6.91132L20.5808 11.8291L12.5827 16.747Z" fill="white"/>
</svg>
