<svg version="1.1" id="Layer_1" xmlns="http://www.w3.org/2000/svg" xmlns:xlink="http://www.w3.org/1999/xlink" x="0px" y="0px"
	 width="100%" viewBox="0 0 180 180" enable-background="new 0 0 180 180" xml:space="preserve">
<path fill="#FDFEFF" opacity="1.000000" stroke="none" 
	d="
M120.000000,181.000000 
	C80.000000,181.000000 40.500004,181.000000 1.000005,181.000000 
	C1.000004,121.000008 1.000004,61.000011 1.000002,1.000013 
	C60.999989,1.000009 120.999977,1.000009 180.999969,1.000005 
	C180.999985,60.999985 180.999985,120.999969 181.000000,180.999969 
	C160.833328,181.000000 140.666672,181.000000 120.000000,181.000000 
M84.597427,135.824478 
	C89.025093,136.596313 90.214424,134.743057 90.168793,130.342163 
	C89.944283,108.690598 90.061279,87.035446 90.075470,65.381569 
	C90.076485,63.832550 90.219856,62.283627 90.371918,59.231880 
	C91.392113,61.271355 91.822525,61.900982 92.038574,62.597145 
	C99.040787,85.159439 106.096596,107.705688 112.934959,130.317673 
	C114.095139,134.153946 115.503952,136.094742 120.033432,136.011917 
	C124.347626,135.932999 126.122734,134.463654 127.351418,130.472748 
	C134.009338,108.847107 140.927658,87.301559 147.782639,65.736801 
	C148.278198,64.177780 148.983307,62.685371 149.590973,61.161995 
	C150.015503,61.278736 150.440033,61.395477 150.864563,61.512215 
	C150.864563,63.276512 150.864532,65.040810 150.864578,66.805107 
	C150.865189,86.793312 150.866318,106.781517 150.866196,126.769722 
	C150.866135,136.612656 150.865463,136.616455 160.736908,135.583923 
	C161.025269,135.553757 161.284531,135.245346 161.553177,135.060303 
	C161.631561,134.919052 161.778214,134.778030 161.778687,134.636520 
	C161.875198,106.164970 161.996597,77.693268 161.902557,49.222279 
	C161.899231,48.217030 159.828354,46.478569 158.593979,46.355350 
	C154.800751,45.976707 150.940689,46.337753 147.116135,46.180206 
	C144.042358,46.053593 142.701248,47.512695 141.873505,50.318832 
	C138.016342,63.395031 134.032883,76.434296 130.038895,89.469704 
	C127.055099,99.208138 123.986359,108.920547 120.786919,119.185211 
	C119.829681,118.107071 119.339615,117.797668 119.214241,117.379044 
	C113.440720,98.101227 107.852982,78.766258 101.907356,59.541943 
	C96.678482,42.635105 101.152641,46.835312 83.741714,46.174706 
	C80.274529,46.043148 79.091957,47.289234 79.105583,50.781483 
	C79.210213,77.598579 79.206863,104.416451 79.103104,131.233566 
	C79.089737,134.689484 80.213608,136.254166 84.597427,135.824478 
M57.927162,55.873497 
	C58.829491,56.021297 59.731819,56.169098 61.083290,56.390469 
	C60.182274,57.992687 59.614719,59.152519 58.914082,60.225449 
	C46.714710,78.907127 34.664562,97.690056 22.170446,116.172791 
	C19.048120,120.791687 18.048841,125.360413 18.215778,130.667465 
	C18.316671,133.874863 19.380522,135.051895 22.643705,135.027695 
	C38.476135,134.910324 54.311283,134.862610 70.142288,135.053757 
	C74.200363,135.102753 74.742424,133.236908 74.783897,129.881439 
	C74.827873,126.323410 73.821213,124.815208 69.960602,124.884331 
	C58.297703,125.093178 46.628643,124.968796 34.962040,124.946869 
	C33.423912,124.943977 31.886084,124.781586 29.782391,124.660500 
	C30.898903,122.757645 31.517389,121.596550 32.233448,120.499123 
	C44.880627,101.115868 57.443565,81.676338 70.275002,62.415710 
	C72.931923,58.427547 73.880493,54.433128 73.838898,49.777576 
	C73.806953,46.202286 72.472038,45.214043 69.088837,45.243858 
	C54.423336,45.373104 39.754555,45.412926 25.090385,45.222359 
	C21.115570,45.170704 19.543335,46.505642 20.036451,50.414490 
	C20.238527,52.016312 20.220009,53.645962 20.332619,55.871178 
	C32.810955,55.871178 44.927059,55.871178 57.927162,55.873497 
z"/>
<path fill="#73ACDE" opacity="1.000000" stroke="none" 
	d="
M84.152802,135.823853 
	C80.213608,136.254166 79.089737,134.689484 79.103104,131.233566 
	C79.206863,104.416451 79.210213,77.598579 79.105583,50.781483 
	C79.091957,47.289234 80.274529,46.043148 83.741714,46.174706 
	C101.152641,46.835312 96.678482,42.635105 101.907356,59.541943 
	C107.852982,78.766258 113.440720,98.101227 119.214241,117.379044 
	C119.339615,117.797668 119.829681,118.107071 120.786919,119.185211 
	C123.986359,108.920547 127.055099,99.208138 130.038895,89.469704 
	C134.032883,76.434296 138.016342,63.395031 141.873505,50.318832 
	C142.701248,47.512695 144.042358,46.053593 147.116135,46.180206 
	C150.940689,46.337753 154.800751,45.976707 158.593979,46.355350 
	C159.828354,46.478569 161.899231,48.217030 161.902557,49.222279 
	C161.996597,77.693268 161.875198,106.164970 161.778687,134.636520 
	C161.778214,134.778030 161.631561,134.919052 161.555267,135.063492 
	C161.284531,135.245346 161.025269,135.553757 160.736908,135.583923 
	C150.865463,136.616455 150.866135,136.612656 150.866196,126.769722 
	C150.866318,106.781517 150.865189,86.793312 150.864578,66.805107 
	C150.864532,65.040810 150.864563,63.276512 150.864563,61.512215 
	C150.440033,61.395477 150.015503,61.278736 149.590973,61.161995 
	C148.983307,62.685371 148.278198,64.177780 147.782639,65.736801 
	C140.927658,87.301559 134.009338,108.847107 127.351418,130.472748 
	C126.122734,134.463654 124.347626,135.932999 120.033432,136.011917 
	C115.503952,136.094742 114.095139,134.153946 112.934959,130.317673 
	C106.096596,107.705688 99.040787,85.159439 92.038574,62.597145 
	C91.822525,61.900982 91.392113,61.271355 90.371918,59.231880 
	C90.219856,62.283627 90.076485,63.832550 90.075470,65.381569 
	C90.061279,87.035446 89.944283,108.690598 90.168793,130.342163 
	C90.214424,134.743057 89.025093,136.596313 84.152802,135.823853 
z"/>
<path fill="#73ACDD" opacity="1.000000" stroke="none" 
	d="
M57.485161,55.872337 
	C44.927059,55.871178 32.810955,55.871178 20.332619,55.871178 
	C20.220009,53.645962 20.238527,52.016312 20.036451,50.414490 
	C19.543335,46.505642 21.115570,45.170704 25.090385,45.222359 
	C39.754555,45.412926 54.423336,45.373104 69.088837,45.243858 
	C72.472038,45.214043 73.806953,46.202286 73.838898,49.777576 
	C73.880493,54.433128 72.931923,58.427547 70.275002,62.415710 
	C57.443565,81.676338 44.880627,101.115868 32.233448,120.499123 
	C31.517389,121.596550 30.898903,122.757645 29.782391,124.660500 
	C31.886084,124.781586 33.423912,124.943977 34.962040,124.946869 
	C46.628643,124.968796 58.297703,125.093178 69.960602,124.884331 
	C73.821213,124.815208 74.827873,126.323410 74.783897,129.881439 
	C74.742424,133.236908 74.200363,135.102753 70.142288,135.053757 
	C54.311283,134.862610 38.476135,134.910324 22.643705,135.027695 
	C19.380522,135.051895 18.316671,133.874863 18.215778,130.667465 
	C18.048841,125.360413 19.048120,120.791687 22.170446,116.172791 
	C34.664562,97.690056 46.714710,78.907127 58.914082,60.225449 
	C59.614719,59.152519 60.182274,57.992687 61.083290,56.390469 
	C59.731819,56.169098 58.829491,56.021297 57.485161,55.872337 
z"/>
</svg>